<svg width="850" height="762" viewBox="0 0 850 762" fill="none" xmlns="http://www.w3.org/2000/svg">
<g clip-path="url(#clip0_4_6)">
<path d="M575.143 737.948C544.534 738.755 514.219 731.974 487.069 718.247C459.919 704.519 436.832 684.299 419.994 659.502C366.995 707.561 297.864 735.422 225.345 737.948C95.4205 737.948 24.9851 649.12 48.7809 521.761C66.8656 426.012 147.771 330.032 170.377 252.971C126.593 227.13 61.6306 209.133 31.172 261.969L11.1836 250.202C27.1267 192.291 65.6758 153.76 121.358 153.76C177.04 153.76 218.207 185.83 271.271 156.298H313.627C291.021 271.659 233.912 363.948 203.453 525.453C184.892 624.433 219.396 669.423 277.696 669.423C320.929 664.144 360.607 643.511 389.06 611.512C365.788 555.103 354.068 494.84 354.556 434.087C354.556 293.808 420.946 145.916 532.31 145.916C589.42 145.916 631.776 184.446 631.776 275.812C631.776 367.178 574.667 508.61 501.852 597.438C505.785 618.588 517.208 637.744 534.15 651.602C551.092 665.459 572.491 673.149 594.655 673.346C700.784 673.346 775.027 518.993 775.027 376.176C775.027 233.359 711.254 239.819 716.727 191.598C717.702 179.474 723.573 168.213 733.064 160.264C742.555 152.314 754.899 148.318 767.412 149.146C800.488 149.146 844.034 189.753 844.034 354.488C844.034 564.445 728.863 737.948 575.143 737.948ZM551.109 218.362C518.033 218.362 486.147 336.723 482.101 459.005C480.556 485.151 481.034 511.373 483.529 537.45C533.508 457.258 563.946 367.062 572.525 273.735C572.287 232.206 564.435 218.362 551.109 218.362ZM1062 732.641C1048.13 734.035 1034.1 732.454 1020.92 728.009C1007.75 723.565 995.739 716.366 985.749 706.922C975.76 697.479 968.034 686.021 963.118 673.361C958.202 660.701 956.216 647.148 957.302 633.661C957.302 577.135 1032.97 295.423 1032.97 249.048C1032.97 227.13 1027.74 214.209 1007.75 214.209C985.395 217.768 964.619 227.639 948.022 242.588V202.673C982.477 171.812 1027.26 154.036 1074.14 152.607C1088.1 151.39 1102.17 153.142 1115.36 157.739C1128.55 162.336 1140.55 169.668 1150.52 179.224C1160.49 188.779 1168.18 200.328 1173.08 213.065C1177.97 225.802 1179.94 239.421 1178.84 252.971C1178.84 309.497 1103.17 590.055 1103.17 636.199C1103.17 658.118 1108.41 671.038 1128.39 671.038C1150.45 667.418 1171.08 658.092 1188.12 644.044V682.574C1153.8 713.634 1108.94 731.442 1062 732.641ZM1154.81 -81.5761C1165.18 -81.9014 1175.5 -80.0306 1185.05 -76.0941C1194.6 -72.1576 1203.15 -66.2499 1210.1 -58.7826C1217.05 -51.3153 1222.24 -42.4679 1225.31 -32.8566C1228.38 -23.2452 1229.25 -13.1011 1227.86 -3.1307C1225.34 18.1352 1214.96 37.7958 1198.64 52.2163C1182.32 66.6368 1161.17 74.8419 1139.1 75.3147C1128.73 75.64 1118.41 73.7692 1108.86 69.8327C1099.31 65.8962 1090.76 59.9885 1083.81 52.5212C1076.86 45.0539 1071.66 36.2065 1068.6 26.5952C1065.53 16.9838 1064.66 6.8397 1066.05 -3.1307C1068.57 -24.3966 1078.95 -44.0572 1095.27 -58.4777C1111.59 -72.8982 1132.73 -81.1033 1154.81 -81.5761ZM1449.4 611.743C1442.74 646.582 1446.78 670.808 1472 670.808C1494.14 667.441 1514.84 658.084 1531.73 643.813L1534.11 682.574C1499.66 713.435 1454.88 731.212 1407.99 732.641C1325.66 732.641 1293.77 674.73 1305.91 602.745L1386.82 156.298C1413.7 7.25178 1404.42 -12.3596 1322.09 -12.3596L1327.33 -48.3522L1575.52 -80.1918L1449.4 611.743ZM2147.33 610.589C2140.66 645.428 2143.28 671.038 2169.93 671.038C2192.11 666.942 2212.74 657.14 2229.66 642.66V682.574C2195.43 713.781 2150.51 731.614 2103.54 732.641C2079.8 734.323 2056.28 727.319 2037.6 713.012C2018.92 698.704 2006.45 678.131 2002.65 655.349C1982.76 680.896 1957.11 701.7 1927.67 716.174C1898.22 730.649 1865.76 738.412 1832.75 738.871C1674.98 738.871 1608.59 603.898 1639.05 441.701C1669.51 279.503 1811.57 147.069 1972.19 147.069C2010.21 146.303 2047.81 154.959 2081.41 172.218L2085.46 151.684C2116.87 -7.05299 2102.35 -12.3596 2020.02 -12.3596L2024.07 -48.3522L2273.44 -80.1918L2147.33 610.589ZM1976.24 205.211C1884.62 205.211 1823.71 310.651 1799.67 440.547C1774.45 576.904 1790.39 671.269 1876.53 671.269C1934.83 671.269 2001.22 602.053 2021.21 496.382L2070.23 228.745C2041.96 212.116 2009.27 203.93 1976.24 205.211ZM2566.61 739.101C2382.19 739.101 2331.74 610.359 2354.35 486.922L2414.55 156.298C2442.39 7.02107 2433.11 -13.5132 2350.78 -13.5132L2356.02 -49.5058L2604.92 -80.1918L2554.47 200.135C2593.2 167.484 2642.38 148.818 2693.68 147.3C2854.3 147.3 2929.73 279.734 2900.7 441.932C2871.67 604.129 2723.9 739.101 2566.61 739.101ZM2652.75 208.441C2625.94 208.979 2599.99 217.727 2578.62 233.434C2557.25 249.141 2541.55 271.001 2533.77 295.885L2496.65 503.534C2474.04 626.971 2519.25 677.268 2576.36 677.268C2659.89 677.268 2711.76 587.286 2739.6 439.394C2764.35 306.959 2741.74 209.133 2652.51 209.133L2652.75 208.441ZM3152.22 516.686C3152.22 615.665 3201.24 668.5 3295 668.5C3342.59 668.5 3411.83 636.43 3455.62 593.977L3474.18 635.046C3442.73 667.364 3404.93 693.243 3362.99 711.155C3321.06 729.067 3275.85 738.648 3230.03 739.332C3090.83 739.332 2996.6 638.968 2996.6 502.611C2996.6 300.73 3169.12 147.531 3334.97 147.531C3435.87 147.531 3492.74 201.52 3492.74 264.507C3491.55 362.333 3395.89 472.156 3152.22 516.686ZM3323.31 206.595C3247.64 206.595 3174.83 313.42 3154.84 466.388C3307.37 430.396 3372.33 330.032 3373.76 265.66C3373.52 229.668 3356.15 206.595 3323.07 206.595H3323.31ZM4034.09 732.641C4010.35 734.323 3986.82 727.319 3968.15 713.012C3949.47 698.704 3937 678.131 3933.2 655.349C3914.05 680.879 3889.02 701.724 3860.11 716.224C3831.19 730.723 3799.18 738.478 3766.63 738.871C3611.48 738.871 3545.09 603.898 3576.26 441.701C3607.43 279.503 3747.11 147.3 3908.21 147.3C3942.38 147.123 3976.23 153.718 4007.68 166.681H4159.02L4077.88 610.589C4071.21 645.428 4073.83 671.038 4100.48 671.038C4122.65 666.942 4143.28 657.14 4160.21 642.66V682.574C4125.98 713.781 4081.06 731.614 4034.09 732.641ZM3912.02 205.211C3823.02 205.211 3760.68 310.651 3736.88 440.547C3711.66 576.904 3729.03 671.269 3808.27 671.269C3869.19 671.269 3934.39 599.284 3952.95 496.382L4001.97 228.745C3975.28 212.114 3943.95 203.893 3912.26 205.211H3912.02ZM4623.27 299.115C4587.34 299.115 4578.06 272.12 4567.59 243.742C4564.06 229.439 4555.51 216.776 4543.39 207.933C4531.27 199.089 4516.35 194.619 4501.2 195.29C4481.52 194.287 4462.17 200.453 4446.93 212.576C4431.7 224.699 4421.69 241.904 4418.87 260.815C4414.82 295.654 4441.47 325.186 4491.92 367.639L4559.5 421.628C4584.69 440.132 4604.19 464.955 4615.89 493.418C4627.59 521.882 4631.05 552.903 4625.89 583.133C4608.76 679.575 4526.42 738.871 4416.25 738.871C4283.47 738.871 4198.76 662.963 4208.04 611.512C4210.18 597.976 4217.23 585.621 4227.91 576.66C4238.59 567.698 4252.21 562.714 4266.34 562.599C4300.84 562.599 4313.93 588.209 4324.64 621.664C4331.5 640.875 4344.72 657.35 4362.23 668.531C4379.74 679.712 4400.57 684.973 4421.49 683.497C4442.16 684.44 4462.45 677.866 4478.38 665.063C4494.31 652.26 4504.74 634.15 4507.63 614.281C4512.86 568.136 4483.83 539.758 4429.34 491.998L4362.95 435.471C4339.54 418.108 4321.31 395.035 4310.11 368.608C4298.9 342.18 4295.13 313.344 4299.18 285.041C4311.07 223.207 4370.56 146.608 4507.39 146.608C4613.52 146.608 4679.91 204.519 4673.96 250.894C4673.31 263.637 4667.73 275.675 4658.34 284.61C4648.94 293.546 4636.43 298.725 4623.27 299.115ZM5108.94 218.362H4980.21L4917.86 560.292C4904.54 631.123 4915.25 663.194 4954.99 663.194C4976.16 663.194 5009.48 651.658 5057.07 604.129L5059.69 654.196C5038.15 678.952 5011.35 698.904 4981.12 712.682C4950.9 726.461 4917.95 733.741 4884.55 734.025C4794.37 734.025 4749.15 672.192 4770.57 557.754L4832.91 218.362H4732.26L4740.11 165.527H4841.72L4868.37 12.5584H5016.86L4989.01 165.527H5117.75L5108.94 218.362Z" fill="#8E4CF0"/>
</g>
<defs>
<clipPath id="clip0_4_6">
<rect width="850" height="850" fill="white"/>
</clipPath>
</defs>
</svg>
